<svg xmlns="http://www.w3.org/2000/svg" width="53" height="34" fill="none" viewBox="0 0 53 34"><g clip-path="url(#a)"><path fill="#000" d="M48.254 0H4.746l-.543.001c-.153.001-.306.003-.458.007a6.642 6.642 0 0 0-.997.088 3.36 3.36 0 0 0-.947.313A3.18 3.18 0 0 0 .408 1.805a3.362 3.362 0 0 0-.312.95c-.06.329-.08.665-.088.998-.004.153-.006.306-.007.458V29.79c0 .153.003.306.007.458.009.333.028.67.088.999.06.335.157.646.312.95A3.174 3.174 0 0 0 1.8 33.59c.303.155.613.253.947.313.329.06.664.08.997.088.152.004.305.006.458.007l.543.001h43.508l.543-.001c.153-.001.305-.003.458-.007.332-.009.668-.029.997-.087a3.35 3.35 0 0 0 .947-.314 3.167 3.167 0 0 0 1.393-1.396c.155-.303.253-.614.312-.95a6.55 6.55 0 0 0 .088-.998c.004-.152.006-.305.007-.458l.001-.545V4.756l-.001-.545a23.435 23.435 0 0 0-.007-.458 6.637 6.637 0 0 0-.088-.999 3.342 3.342 0 0 0-.312-.95 3.198 3.198 0 0 0-2.34-1.708 6.66 6.66 0 0 0-.997-.088 22.805 22.805 0 0 0-.458-.007L48.254 0Z"/><path fill="#fff" d="m48.254 1.133.535.001c.145.001.29.003.435.007.254.007.55.02.827.07.24.044.442.11.636.208a2.046 2.046 0 0 1 .898.9c.097.193.163.394.206.637.05.274.063.572.07.828.004.144.006.288.007.436v25.564c-.001.144-.003.288-.007.433-.007.255-.02.553-.07.83-.043.24-.108.44-.207.634a2.054 2.054 0 0 1-.9.9 2.21 2.21 0 0 1-.63.208c-.283.05-.592.064-.825.07-.146.004-.292.006-.441.006-.178.002-.356.002-.534.002H4.739c-.176 0-.352 0-.531-.002-.146 0-.292-.002-.433-.006a5.754 5.754 0 0 1-.827-.07 2.22 2.22 0 0 1-.636-.209 2.04 2.04 0 0 1-.897-.9 2.23 2.23 0 0 1-.207-.636 5.617 5.617 0 0 1-.07-.827 21.23 21.23 0 0 1-.006-.435l-.001-.426V4.22c.001-.145.003-.29.007-.436.007-.253.02-.55.07-.83.044-.24.11-.441.208-.635a2.045 2.045 0 0 1 .898-.9c.192-.097.394-.163.634-.207.276-.05.573-.063.828-.07.145-.004.29-.006.433-.007h44.045Z"/><path fill="#000" d="M14.469 11.436c.454-.57.761-1.333.68-2.113-.664.033-1.475.439-1.944 1.008-.421.488-.794 1.283-.697 2.031.746.065 1.49-.373 1.96-.926Zm.672 1.072c-1.083-.065-2.004.616-2.52.616-.518 0-1.31-.583-2.167-.568-1.115.017-2.15.648-2.715 1.653-1.164 2.01-.307 4.99.825 6.628.549.81 1.211 1.701 2.084 1.67.824-.033 1.148-.536 2.15-.536 1.001 0 1.292.535 2.165.519.905-.016 1.471-.81 2.02-1.62.631-.924.89-1.815.905-1.864-.016-.017-1.745-.681-1.761-2.674-.016-1.669 1.358-2.463 1.422-2.512-.776-1.15-1.988-1.28-2.408-1.312Zm9.429-2.258c2.354 0 3.993 1.625 3.993 3.992 0 2.376-1.672 4.01-4.051 4.01h-2.607v4.153h-1.883V10.25h4.549Zm-2.665 6.419h2.16c1.64 0 2.573-.885 2.573-2.418 0-1.533-.933-2.41-2.564-2.41h-2.169v4.828Zm7.15 3.218c0-1.55 1.186-2.502 3.287-2.62l2.421-.143v-.683c0-.985-.664-1.575-1.773-1.575-1.052 0-1.707.505-1.867 1.297h-1.715c.101-1.6 1.463-2.78 3.649-2.78 2.143 0 3.514 1.138 3.514 2.915v6.107h-1.74v-1.457h-.043c-.512.986-1.63 1.609-2.79 1.609-1.732 0-2.943-1.078-2.943-2.67Zm5.708-.8v-.7l-2.177.135c-1.085.076-1.698.556-1.698 1.314 0 .775.639 1.28 1.614 1.28 1.27 0 2.261-.876 2.261-2.03Zm3.451 6.578v-1.474c.134.034.437.034.588.034.84 0 1.295-.354 1.572-1.264 0-.017.16-.539.16-.547l-3.195-8.87h1.967l2.237 7.21h.033l2.236-7.21h1.917l-3.312 9.324c-.757 2.149-1.631 2.84-3.464 2.84-.151 0-.605-.018-.74-.043Z"/></g><defs><clipPath id="a"><path fill="#fff" d="M0 0h53v34H0z"/></clipPath></defs></svg>