<svg xmlns="http://www.w3.org/2000/svg" width="57" height="32" fill="none" viewBox="0 0 57 32"><rect width="56" height="31" x="0.5" y="0.5" fill="#fff" stroke="#3B4043" rx="15.5"/><g clip-path="url(#a)"><path fill="#3B4043" d="M27.973 15.84v4.103h-1.404V9.808h3.722a3.63 3.63 0 0 1 1.3.215c.413.151.79.376 1.11.663.323.269.58.599.753.968.174.369.26.768.254 1.17a2.62 2.62 0 0 1-.25 1.178 2.825 2.825 0 0 1-.757.973c-.65.576-1.454.864-2.41.863h-2.318v.001Zm0-4.784v3.538h2.353a1.99 1.99 0 0 0 .754-.126 1.87 1.87 0 0 0 .635-.398c.178-.161.32-.354.417-.566a1.62 1.62 0 0 0 0-1.345 1.728 1.728 0 0 0-.417-.566 1.839 1.839 0 0 0-.632-.407 1.958 1.958 0 0 0-.757-.13h-2.353Zm8.969 1.727c1.037 0 1.856.257 2.456.771.6.515.9 1.22.9 2.116v4.274h-1.343v-.963h-.06c-.582.793-1.355 1.189-2.32 1.189-.823 0-1.512-.227-2.066-.68a2.192 2.192 0 0 1-.622-.761 2.035 2.035 0 0 1-.21-.936c0-.718.293-1.289.877-1.712.585-.424 1.365-.636 2.342-.638.833 0 1.52.142 2.058.425v-.298c.002-.22-.05-.437-.15-.636a1.49 1.49 0 0 0-.43-.516 2.078 2.078 0 0 0-1.354-.475c-.784 0-1.404.307-1.86.92l-1.237-.721c.68-.906 1.686-1.359 3.019-1.359Zm-1.816 5.038a.98.98 0 0 0 .122.477c.081.147.199.275.344.372a1.8 1.8 0 0 0 1.09.34 2.33 2.33 0 0 0 1.579-.609c.464-.405.697-.882.697-1.428-.438-.324-1.048-.486-1.83-.486-.57 0-1.046.128-1.426.383-.385.259-.576.573-.576.95Zm12.877-4.811L43.317 23h-1.449l1.739-3.496-3.081-6.495h1.525l2.227 4.982h.03l2.167-4.982h1.528Z"/><path fill="#4285F4" d="M22 14.908c0-.393-.035-.786-.106-1.174h-5.773v2.224h3.306c-.067.356-.21.694-.42.996a2.76 2.76 0 0 1-.802.76v1.444h1.973C21.334 18.152 22 16.666 22 14.908Z"/><path fill="#34A852" d="M16.121 20.553c1.652 0 3.043-.512 4.057-1.394l-1.973-1.444c-.55.351-1.256.552-2.084.552-1.596 0-2.952-1.016-3.436-2.385h-2.033v1.489a5.917 5.917 0 0 0 2.256 2.323 6.4 6.4 0 0 0 3.213.86Z"/><path fill="#F9BA05" d="M12.685 15.882a3.277 3.277 0 0 1 0-2.21v-1.489h-2.033A5.512 5.512 0 0 0 10 14.777c0 .9.223 1.789.652 2.594l2.033-1.489Z"/><path fill="#E94235" d="M16.121 11.287a3.435 3.435 0 0 1 2.349.866l1.747-1.648A6.08 6.08 0 0 0 16.12 9a6.397 6.397 0 0 0-3.213.86 5.917 5.917 0 0 0-2.256 2.323l2.033 1.488c.484-1.368 1.84-2.384 3.436-2.384Z"/></g><defs><clipPath id="a"><path fill="#fff" d="M10 9h38v14H10z"/></clipPath></defs></svg>