<svg width="470" height="203" viewBox="0 0 470 203" fill="none" xmlns="http://www.w3.org/2000/svg">
<path d="M11 41C13.7614 41 16 38.7614 16 36C16 33.2386 13.7614 31 11 31C8.23858 31 6 33.2386 6 36C6 38.7614 8.23858 41 11 41Z" fill="#AAFF1F"/>
<path d="M26.588 40L29.654 36.066C28.842 35.916 28.194 35.595 27.708 35.1C27.223 34.596 26.98 33.947 26.98 33.154C26.98 32.324 27.227 31.67 27.722 31.194C28.385 30.531 29.337 30.2 30.578 30.2H34.764V40H33.658V36.248H30.844L27.932 40H26.588ZM30.648 35.31H33.658V31.194H30.648C29.845 31.194 29.215 31.381 28.758 31.754C28.31 32.118 28.086 32.613 28.086 33.238C28.086 33.863 28.324 34.368 28.8 34.75C29.276 35.123 29.892 35.31 30.648 35.31ZM37.348 40V32.762H38.426V36.934L42.388 32.762H43.718L40.694 35.898L43.802 40H42.53L39.953 36.682L38.427 38.25V40H37.348ZM51.298 39.062C50.57 39.799 49.669 40.168 48.596 40.168C47.523 40.168 46.626 39.799 45.908 39.062C45.198 38.325 44.844 37.433 44.844 36.388C44.844 35.352 45.204 34.465 45.922 33.728C46.65 32.981 47.551 32.608 48.624 32.608C49.697 32.608 50.594 32.977 51.312 33.714C52.031 34.451 52.39 35.343 52.39 36.388C52.39 37.424 52.026 38.315 51.298 39.062ZM48.624 39.202C49.399 39.202 50.034 38.932 50.528 38.39C51.032 37.849 51.284 37.181 51.284 36.388C51.284 35.604 51.023 34.937 50.5 34.386C50.2604 34.1199 49.9663 33.9085 49.6378 33.766C49.3093 33.6235 48.954 33.5532 48.596 33.56C47.821 33.56 47.186 33.835 46.692 34.386C46.197 34.927 45.95 35.595 45.95 36.388C45.95 37.172 46.207 37.839 46.72 38.39C46.9618 38.6524 47.2566 38.8605 47.5848 39.0005C47.913 39.1405 48.2673 39.2092 48.624 39.202ZM60.559 40.168C59.569 40.168 58.757 39.851 58.123 39.216C57.488 38.581 57.124 37.783 57.031 36.822H55.421V40H54.343V32.762H55.421V35.912H57.031C57.143 34.969 57.516 34.185 58.151 33.56C58.795 32.925 59.607 32.608 60.587 32.608C61.651 32.608 62.509 32.972 63.163 33.7C63.825 34.428 64.157 35.324 64.157 36.388C64.157 37.433 63.825 38.325 63.163 39.062C62.5 39.799 61.632 40.168 60.559 40.168ZM60.587 39.202C61.343 39.202 61.94 38.936 62.379 38.404C62.817 37.863 63.037 37.191 63.037 36.388C63.037 35.585 62.808 34.918 62.351 34.386C61.893 33.845 61.296 33.574 60.559 33.574C59.812 33.574 59.219 33.844 58.781 34.386C58.342 34.918 58.123 35.586 58.123 36.388C58.123 37.191 58.347 37.863 58.795 38.404C59.252 38.936 59.849 39.202 60.587 39.202ZM70.297 40V32.762H71.32L74.022 36.57L76.724 32.762H77.76V40H76.668V34.484L73.994 38.152L71.348 34.484V40H70.297ZM86.175 39.062C85.447 39.799 84.546 40.168 83.473 40.168C82.4 40.168 81.503 39.799 80.785 39.062C80.075 38.325 79.721 37.433 79.721 36.388C79.721 35.352 80.081 34.465 80.799 33.728C81.527 32.981 82.427 32.608 83.501 32.608C84.574 32.608 85.471 32.977 86.189 33.714C86.908 34.451 87.267 35.343 87.267 36.388C87.267 37.424 86.903 38.315 86.175 39.062ZM83.501 39.202C84.275 39.202 84.911 38.932 85.405 38.39C85.909 37.849 86.161 37.181 86.161 36.388C86.161 35.604 85.9 34.937 85.377 34.386C85.1374 34.1199 84.8433 33.9085 84.5148 33.766C84.1863 33.6235 83.831 33.5532 83.473 33.56C82.698 33.56 82.063 33.835 81.569 34.386C81.074 34.927 80.827 35.595 80.827 36.388C80.827 37.172 81.084 37.839 81.597 38.39C81.8388 38.6524 82.1336 38.8605 82.4618 39.0005C82.79 39.1405 83.1442 39.2092 83.501 39.202ZM89.22 40V32.762H92.72C93.438 32.762 94.012 32.925 94.442 33.252C94.871 33.579 95.086 34.017 95.086 34.568C95.086 35.343 94.684 35.898 93.882 36.234C94.946 36.524 95.478 37.121 95.478 38.026C95.478 38.633 95.24 39.113 94.764 39.468C94.288 39.823 93.648 40 92.846 40H89.22ZM90.298 39.076H92.706C93.219 39.076 93.625 38.969 93.924 38.754C94.222 38.539 94.372 38.241 94.372 37.858C94.372 37.503 94.213 37.228 93.896 37.032C93.588 36.836 93.144 36.738 92.566 36.738H90.298V39.076ZM90.298 35.87H92.524C92.972 35.87 93.326 35.772 93.588 35.576C93.858 35.371 93.994 35.081 93.994 34.708C93.9972 34.5627 93.9643 34.4189 93.8983 34.2894C93.8324 34.16 93.7354 34.0488 93.616 33.966C93.364 33.779 93.009 33.686 92.552 33.686H90.298V35.87ZM103.429 39.062C102.701 39.799 101.8 40.168 100.727 40.168C99.653 40.168 98.757 39.799 98.039 39.062C97.329 38.325 96.975 37.433 96.975 36.388C96.975 35.352 97.335 34.465 98.053 33.728C98.781 32.981 99.681 32.608 100.755 32.608C101.828 32.608 102.724 32.977 103.443 33.714C104.161 34.451 104.521 35.343 104.521 36.388C104.521 37.424 104.157 38.315 103.429 39.062ZM100.755 39.202C101.529 39.202 102.164 38.932 102.659 38.39C103.163 37.849 103.415 37.181 103.415 36.388C103.415 35.604 103.153 34.937 102.631 34.386C102.391 34.12 102.097 33.9086 101.769 33.7661C101.44 33.6236 101.085 33.5533 100.727 33.56C99.952 33.56 99.317 33.835 98.823 34.386C98.328 34.927 98.081 35.595 98.081 36.388C98.081 37.172 98.337 37.839 98.851 38.39C99.0928 38.6524 99.3876 38.8605 99.7158 39.0005C100.044 39.1405 100.398 39.2092 100.755 39.202ZM112.69 40.168C111.7 40.168 110.888 39.851 110.254 39.216C109.619 38.581 109.255 37.783 109.162 36.822H107.552V40H106.474V32.762H107.552V35.912H109.162C109.274 34.969 109.647 34.185 110.282 33.56C110.926 32.925 111.738 32.608 112.718 32.608C113.782 32.608 114.64 32.972 115.294 33.7C115.956 34.428 116.288 35.324 116.288 36.388C116.288 37.433 115.956 38.325 115.294 39.062C114.631 39.799 113.763 40.168 112.69 40.168ZM112.718 39.202C113.474 39.202 114.071 38.936 114.51 38.404C114.948 37.863 115.168 37.191 115.168 36.388C115.168 35.585 114.939 34.918 114.482 34.386C114.024 33.845 113.427 33.574 112.69 33.574C111.943 33.574 111.35 33.844 110.912 34.386C110.473 34.918 110.254 35.586 110.254 36.388C110.254 37.191 110.478 37.863 110.926 38.404C111.383 38.936 111.98 39.202 112.718 39.202ZM122.429 42.24V32.762H123.507V34.218C124.235 33.145 125.159 32.608 126.279 32.608C127.203 32.608 128.01 32.953 128.701 33.644C129.391 34.325 129.737 35.24 129.737 36.388C129.737 37.518 129.391 38.428 128.701 39.118C128.01 39.808 127.203 40.154 126.279 40.154C125.14 40.154 124.216 39.641 123.507 38.614V42.24H122.429ZM126.083 39.188C126.811 39.188 127.417 38.936 127.903 38.432C128.388 37.919 128.631 37.232 128.631 36.374C128.631 35.544 128.383 34.871 127.889 34.358C127.661 34.1067 127.382 33.9069 127.07 33.7717C126.759 33.6366 126.422 33.5692 126.083 33.574C125.383 33.574 124.771 33.84 124.249 34.372C123.726 34.904 123.465 35.576 123.465 36.388C123.465 37.2 123.726 37.872 124.249 38.404C124.771 38.927 125.383 39.188 126.083 39.188ZM137.731 39.062C137.003 39.799 136.103 40.168 135.029 40.168C133.956 40.168 133.06 39.799 132.341 39.062C131.632 38.325 131.277 37.433 131.277 36.388C131.277 35.352 131.637 34.465 132.355 33.728C133.083 32.981 133.984 32.608 135.057 32.608C136.131 32.608 137.027 32.977 137.745 33.714C138.464 34.451 138.823 35.343 138.823 36.388C138.823 37.424 138.459 38.315 137.731 39.062ZM135.057 39.202C135.832 39.202 136.467 38.932 136.961 38.39C137.465 37.849 137.717 37.181 137.717 36.388C137.717 35.604 137.456 34.937 136.933 34.386C136.693 34.1199 136.399 33.9084 136.071 33.7659C135.742 33.6234 135.387 33.5532 135.029 33.56C134.255 33.56 133.62 33.835 133.125 34.386C132.631 34.927 132.383 35.595 132.383 36.388C132.383 37.172 132.64 37.839 133.153 38.39C133.395 38.6524 133.69 38.8605 134.018 39.0005C134.346 39.1405 134.7 39.2092 135.057 39.202ZM143.072 40.168C141.962 40.168 140.963 39.808 140.076 39.09L140.622 38.292C141.36 38.917 142.167 39.23 143.044 39.23C143.539 39.23 143.959 39.118 144.304 38.894C144.659 38.661 144.836 38.344 144.836 37.942C144.841 37.768 144.8 37.5958 144.716 37.4432C144.633 37.2905 144.51 37.1631 144.36 37.074C144.043 36.859 143.595 36.752 143.016 36.752H142.05V35.87H143.03C143.506 35.87 143.894 35.758 144.192 35.534C144.334 35.4294 144.449 35.2921 144.527 35.1337C144.605 34.9753 144.644 34.8005 144.64 34.624C144.64 34.297 144.491 34.036 144.192 33.84C143.903 33.644 143.53 33.546 143.072 33.546C142.214 33.546 141.481 33.789 140.874 34.274L140.342 33.518C141.126 32.911 142.06 32.608 143.142 32.608C143.945 32.608 144.58 32.79 145.046 33.154C145.522 33.509 145.76 33.971 145.76 34.54C145.76 35.333 145.373 35.889 144.598 36.206C145.494 36.523 145.942 37.116 145.942 37.984C145.942 38.591 145.681 39.109 145.158 39.538C144.636 39.958 143.94 40.168 143.072 40.168ZM147.94 40V32.762H148.962L151.664 36.57L154.366 32.762H155.402V40H154.31V34.484L151.636 38.152L148.99 34.484V40H147.94ZM163.817 39.062C163.089 39.799 162.189 40.168 161.115 40.168C160.042 40.168 159.146 39.799 158.427 39.062C157.718 38.325 157.363 37.433 157.363 36.388C157.363 35.352 157.723 34.465 158.441 33.728C159.169 32.981 160.07 32.608 161.143 32.608C162.217 32.608 163.113 32.977 163.831 33.714C164.55 34.451 164.909 35.343 164.909 36.388C164.909 37.424 164.545 38.315 163.817 39.062ZM161.143 39.202C161.918 39.202 162.553 38.932 163.047 38.39C163.551 37.849 163.803 37.181 163.803 36.388C163.803 35.604 163.542 34.937 163.019 34.386C162.779 34.1199 162.485 33.9084 162.157 33.7659C161.828 33.6234 161.473 33.5532 161.115 33.56C160.341 33.56 159.706 33.835 159.211 34.386C158.717 34.927 158.469 35.595 158.469 36.388C158.469 37.172 158.726 37.839 159.239 38.39C159.481 38.6524 159.776 38.8605 160.104 39.0005C160.432 39.1405 160.786 39.2092 161.143 39.202ZM166.862 40V32.762H170.362C171.081 32.762 171.655 32.925 172.084 33.252C172.514 33.579 172.728 34.017 172.728 34.568C172.728 35.343 172.327 35.898 171.524 36.234C172.588 36.524 173.12 37.121 173.12 38.026C173.12 38.633 172.882 39.113 172.406 39.468C171.93 39.823 171.291 40 170.488 40H166.862ZM167.94 39.076H170.348C170.862 39.076 171.268 38.969 171.566 38.754C171.865 38.539 172.014 38.241 172.014 37.858C172.014 37.503 171.856 37.228 171.538 37.032C171.23 36.836 170.787 36.738 170.208 36.738H167.94V39.076ZM167.94 35.87H170.166C170.614 35.87 170.969 35.772 171.23 35.576C171.501 35.371 171.636 35.081 171.636 34.708C171.639 34.5627 171.606 34.4189 171.54 34.2894C171.474 34.16 171.377 34.0488 171.258 33.966C171.006 33.779 170.652 33.686 170.194 33.686H167.94V35.87ZM174.715 40.112C174.422 40.1105 174.131 40.0729 173.847 40L173.973 39.076C174.188 39.141 174.361 39.174 174.491 39.174C174.697 39.174 174.865 39.151 174.995 39.104C175.126 39.048 175.266 38.913 175.415 38.698C175.574 38.474 175.695 38.161 175.779 37.76C175.863 37.359 175.933 36.79 175.989 36.052C176.055 35.315 176.087 34.419 176.087 33.364V32.762H181.211V40H180.133V33.714H177.109V33.882C177.109 34.983 177.067 35.922 176.983 36.696C176.899 37.471 176.792 38.077 176.661 38.516C176.54 38.955 176.367 39.296 176.143 39.538C175.919 39.781 175.7 39.935 175.485 40C175.237 40.0813 174.976 40.1192 174.715 40.112ZM182.98 40L185.192 37.2C184.623 37.07 184.156 36.813 183.792 36.43C183.437 36.047 183.26 35.576 183.26 35.016C183.26 34.344 183.503 33.803 183.988 33.392C184.473 32.972 185.141 32.762 185.99 32.762H189.392V40H188.314V37.368H186.312C185.648 38.2478 184.981 39.1252 184.31 40H182.98ZM186.074 36.458H188.314V33.714H186.046C185.514 33.714 185.094 33.835 184.786 34.078C184.487 34.311 184.338 34.638 184.338 35.058C184.338 35.488 184.497 35.828 184.814 36.08C185.141 36.332 185.561 36.458 186.074 36.458ZM195.048 40.168C194.012 40.168 193.134 39.799 192.416 39.062C192.068 38.7159 191.793 38.3033 191.608 37.8487C191.423 37.3941 191.331 36.9068 191.338 36.416C191.338 35.371 191.683 34.475 192.374 33.728C193.074 32.981 193.946 32.608 194.992 32.608C196.168 32.608 197.148 33.047 197.932 33.924L197.302 34.624C196.63 33.905 195.883 33.546 195.062 33.546C194.39 33.546 193.806 33.775 193.312 34.232C192.838 34.666 192.539 35.2587 192.472 35.898H195.762V36.808H192.458C192.523 37.4701 192.832 38.0842 193.326 38.53C193.83 38.997 194.427 39.23 195.118 39.23C195.883 39.23 196.611 38.852 197.302 38.096L198.016 38.768C197.624 39.235 197.194 39.585 196.728 39.818C196.27 40.051 195.71 40.168 195.048 40.168ZM206.151 40.154C205.414 40.154 204.779 39.954 204.247 39.552C203.715 39.151 203.449 38.591 203.449 37.872C203.449 37.116 203.729 36.532 204.289 36.122C204.849 35.712 205.6 35.506 206.543 35.506C207.29 35.506 208.027 35.609 208.755 35.814V35.59C208.755 34.955 208.568 34.47 208.195 34.134C207.822 33.798 207.294 33.63 206.613 33.63C205.904 33.63 205.171 33.803 204.415 34.148L204.093 33.266C204.989 32.856 205.866 32.65 206.725 32.65C207.752 32.65 208.531 32.916 209.063 33.448C209.567 33.952 209.819 34.661 209.819 35.576V40H208.755V38.922C208.111 39.743 207.243 40.154 206.151 40.154ZM206.361 39.286C207.033 39.286 207.602 39.104 208.069 38.74C208.536 38.376 208.769 37.91 208.769 37.34V36.668C208.082 36.4659 207.371 36.3623 206.655 36.36C205.992 36.36 205.474 36.495 205.101 36.766C204.728 37.027 204.541 37.386 204.541 37.844C204.541 38.283 204.714 38.633 205.059 38.894C205.414 39.155 205.848 39.286 206.361 39.286ZM213.222 42.282C212.688 42.2792 212.161 42.1547 211.682 41.918L212.046 41.064C212.397 41.2425 212.786 41.3338 213.18 41.33C213.507 41.33 213.782 41.227 214.006 41.022C214.23 40.826 214.45 40.476 214.664 39.972L211.374 32.762H212.564L215.196 38.796L217.52 32.762H218.668L215.63 40.238C215.322 40.975 214.982 41.498 214.608 41.806C214.235 42.123 213.773 42.282 213.222 42.282ZM219.31 41.806V39.048H220.094C220.738 37.863 221.06 36.188 221.06 34.022V32.762H226.212V39.048H227.304L227.136 41.806H226.24V40H220.388L220.192 41.806H219.31ZM221.242 39.048H225.134V33.714H222.096V34.722C222.096 36.542 221.811 37.984 221.242 39.048ZM228.782 40V32.762H229.86V38.488L234.158 32.762H235.208V40H234.13V34.274L229.818 40H228.782ZM239.364 40V33.714H236.774V32.762H243.046V33.714H240.456V40H239.364ZM250.62 39.062C249.892 39.799 248.991 40.168 247.918 40.168C246.845 40.168 245.949 39.799 245.23 39.062C244.521 38.325 244.166 37.433 244.166 36.388C244.166 35.352 244.525 34.465 245.244 33.728C245.972 32.981 246.873 32.608 247.946 32.608C249.019 32.608 249.915 32.977 250.634 33.714C251.353 34.451 251.712 35.343 251.712 36.388C251.712 37.424 251.348 38.315 250.62 39.062ZM247.946 39.202C248.721 39.202 249.355 38.932 249.85 38.39C250.354 37.849 250.606 37.181 250.606 36.388C250.606 35.604 250.345 34.937 249.822 34.386C249.582 34.1199 249.288 33.9084 248.96 33.7659C248.631 33.6234 248.276 33.5532 247.918 33.56C247.143 33.56 246.509 33.835 246.014 34.386C245.519 34.927 245.272 35.595 245.272 36.388C245.272 37.172 245.529 37.839 246.042 38.39C246.284 38.6525 246.579 38.8606 246.907 39.0006C247.235 39.1406 247.589 39.2092 247.946 39.202ZM253.665 42.24V32.762H254.743V34.218C255.471 33.145 256.395 32.608 257.515 32.608C258.439 32.608 259.246 32.953 259.937 33.644C260.628 34.325 260.973 35.24 260.973 36.388C260.973 37.518 260.628 38.428 259.937 39.118C259.246 39.808 258.439 40.154 257.515 40.154C256.376 40.154 255.452 39.641 254.743 38.614V42.24H253.665ZM257.319 39.188C258.047 39.188 258.654 38.936 259.139 38.432C259.624 37.919 259.867 37.232 259.867 36.374C259.867 35.544 259.62 34.871 259.125 34.358C258.897 34.1067 258.618 33.9069 258.306 33.7717C257.995 33.6366 257.658 33.5692 257.319 33.574C256.619 33.574 256.008 33.84 255.485 34.372C254.962 34.904 254.701 35.576 254.701 36.388C254.701 37.2 254.962 37.872 255.485 38.404C256.008 38.927 256.619 39.188 257.319 39.188ZM263.06 40V32.762H264.138V40H263.06ZM262.99 31.18V29.99H264.222V31.18H262.99ZM265.996 40L268.208 37.2C267.638 37.07 267.172 36.813 266.808 36.43C266.453 36.047 266.276 35.576 266.276 35.016C266.276 34.344 266.518 33.803 267.004 33.392C267.489 32.972 268.156 32.762 269.006 32.762H272.408V40H271.33V37.368H269.328L268.46 38.516C267.965 39.169 267.587 39.664 267.326 40H265.996ZM269.09 36.458H271.33V33.714H269.062C268.53 33.714 268.11 33.835 267.802 34.078C267.503 34.311 267.354 34.638 267.354 35.058C267.354 35.488 267.512 35.828 267.83 36.08C268.156 36.332 268.576 36.458 269.09 36.458Z" fill="#FFFBEF" fill-opacity="0.6"/>
<path d="M11 15C13.7614 15 16 12.7614 16 10C16 7.23858 13.7614 5 11 5C8.23858 5 6 7.23858 6 10C6 12.7614 8.23858 15 11 15Z" fill="#FFCE1F"/>
<path d="M27.386 14V4.19999H31.054C32.174 4.19999 33.065 4.47999 33.728 5.03999C34.391 5.59999 34.722 6.36499 34.722 7.33599C34.722 8.35299 34.353 9.14199 33.616 9.70199C32.888 10.262 31.973 10.542 30.872 10.542H28.492V14H27.386ZM28.492 9.53399H30.914C31.726 9.53399 32.374 9.33799 32.86 8.94599C33.355 8.54499 33.602 8.01299 33.602 7.34999C33.602 6.66899 33.364 6.14599 32.888 5.78199C32.421 5.40899 31.782 5.22199 30.97 5.22199H28.492V9.53399ZM36.654 14V6.76199H37.732V14H36.654ZM36.584 5.17999V3.98999H37.816V5.17999H36.584ZM40.234 14V6.76199H43.734C44.452 6.76199 45.026 6.92499 45.455 7.25199C45.885 7.57899 46.099 8.01699 46.099 8.56799C46.099 9.34299 45.698 9.89799 44.895 10.234C45.959 10.524 46.491 11.121 46.491 12.026C46.491 12.633 46.253 13.113 45.777 13.468C45.301 13.823 44.662 14 43.86 14H40.234ZM41.311 13.076H43.719C44.233 13.076 44.639 12.969 44.937 12.754C45.236 12.539 45.385 12.241 45.385 11.858C45.385 11.503 45.227 11.228 44.909 11.032C44.601 10.836 44.158 10.738 43.579 10.738H41.311V13.076ZM41.311 9.86999H43.537C43.985 9.86999 44.34 9.77199 44.601 9.57599C44.872 9.37099 45.007 9.08099 45.007 8.70799C45.0101 8.56272 44.9773 8.41892 44.9113 8.28945C44.8454 8.15997 44.7484 8.04885 44.629 7.96599C44.377 7.77899 44.023 7.68599 43.565 7.68599H41.311V9.86999ZM51.601 14.168C50.583 14.168 49.724 13.818 49.024 13.118C48.334 12.408 47.988 11.498 47.988 10.388C47.988 9.33299 48.32 8.44199 48.982 7.71399C49.645 6.97699 50.472 6.60799 51.46 6.60799C52.496 6.60799 53.318 6.97199 53.924 7.69999C54.531 8.42799 54.834 9.34299 54.834 10.444C54.834 10.584 54.83 10.71 54.82 10.822H49.08C49.155 11.559 49.43 12.147 49.906 12.586C50.392 13.016 50.966 13.23 51.628 13.23C52.496 13.23 53.258 12.89 53.91 12.208L54.582 12.81C53.77 13.715 52.776 14.168 51.6 14.168H51.601ZM49.081 9.95399H53.742C53.677 9.25399 53.444 8.67499 53.042 8.21799C52.65 7.75099 52.114 7.51799 51.432 7.51799C50.816 7.51799 50.289 7.74699 49.85 8.20399C49.412 8.66099 49.156 9.24399 49.081 9.95399ZM56.72 14V6.76199H57.8V9.88399H61.972V6.76199H63.05V14H61.972V10.836H57.8V14H56.722H56.72ZM65.457 14V6.76199H66.535V9.47799H68.467C69.307 9.47799 69.993 9.65999 70.525 10.024C71.057 10.379 71.323 10.92 71.323 11.648C71.323 12.367 71.076 12.941 70.581 13.37C70.086 13.79 69.424 14 68.593 14H65.457ZM66.535 13.048H68.495C69.045 13.048 69.47 12.931 69.769 12.698C70.077 12.465 70.231 12.124 70.231 11.676C70.231 11.266 70.072 10.953 69.755 10.738C69.447 10.514 69.013 10.402 68.453 10.402H66.535V13.048ZM77.187 16.24V6.76199H78.265V8.21799C78.993 7.14499 79.917 6.60799 81.037 6.60799C81.961 6.60799 82.769 6.95299 83.459 7.64399C84.15 8.32499 84.495 9.23999 84.495 10.388C84.495 11.518 84.15 12.428 83.459 13.118C82.769 13.808 81.961 14.154 81.037 14.154C79.899 14.154 78.975 13.641 78.265 12.614V16.24H77.187ZM80.841 13.188C81.569 13.188 82.176 12.936 82.661 12.432C83.147 11.919 83.389 11.232 83.389 10.374C83.389 9.54399 83.142 8.87099 82.647 8.35799C82.4188 8.10669 82.1397 7.90682 81.8283 7.77165C81.517 7.63648 81.1804 7.5691 80.841 7.57399C80.141 7.57399 79.53 7.83999 79.007 8.37199C78.485 8.90399 78.223 9.57599 78.223 10.388C78.223 11.2 78.485 11.872 79.007 12.404C79.53 12.927 80.141 13.188 80.841 13.188ZM92.491 13.062C91.762 13.799 90.861 14.168 89.788 14.168C88.715 14.168 87.818 13.799 87.1 13.062C86.39 12.325 86.036 11.433 86.036 10.388C86.036 9.35199 86.396 8.46499 87.114 7.72799C87.842 6.98099 88.743 6.60799 89.816 6.60799C90.89 6.60799 91.786 6.97699 92.504 7.71399C93.223 8.45099 93.582 9.34299 93.582 10.388C93.582 11.424 93.219 12.315 92.491 13.062ZM89.816 13.202C90.591 13.202 91.226 12.932 91.72 12.39C92.224 11.849 92.476 11.181 92.476 10.388C92.476 9.60399 92.215 8.93699 91.692 8.38599C91.4523 8.11994 91.1583 7.90849 90.8298 7.76598C90.5013 7.62347 90.146 7.55322 89.788 7.55999C89.014 7.55999 88.378 7.83499 87.884 8.38599C87.39 8.92699 87.142 9.59499 87.142 10.388C87.142 11.172 87.399 11.839 87.912 12.39C88.1538 12.6524 88.4485 12.8605 88.7768 13.0005C89.105 13.1405 89.4592 13.2092 89.816 13.202ZM95.185 14.112C94.905 14.112 94.615 14.075 94.317 14L94.443 13.076C94.658 13.141 94.83 13.174 94.961 13.174C95.166 13.174 95.334 13.151 95.465 13.104C95.595 13.048 95.735 12.913 95.885 12.698C96.044 12.474 96.165 12.161 96.249 11.76C96.333 11.359 96.403 10.79 96.459 10.052C96.524 9.31499 96.557 8.41899 96.557 7.36399V6.76199H101.681V14H100.603V7.71399H97.58V7.88199C97.58 8.98299 97.538 9.92199 97.454 10.696C97.37 11.471 97.263 12.077 97.132 12.516C97.011 12.955 96.838 13.296 96.614 13.538C96.39 13.781 96.171 13.935 95.956 14C95.7077 14.0813 95.4462 14.1192 95.185 14.112ZM104.094 14V6.76199H105.172V9.47799H107.104C107.944 9.47799 108.63 9.65999 109.162 10.024C109.694 10.379 109.96 10.92 109.96 11.648C109.96 12.367 109.712 12.941 109.218 13.37C108.723 13.79 108.06 14 107.23 14H104.094ZM105.172 13.048H107.132C107.682 13.048 108.107 12.931 108.406 12.698C108.714 12.465 108.868 12.124 108.868 11.676C108.868 11.266 108.709 10.953 108.392 10.738C108.084 10.514 107.65 10.402 107.09 10.402H105.172V13.048ZM117.633 13.062C116.905 13.799 116.004 14.168 114.931 14.168C113.857 14.168 112.961 13.799 112.243 13.062C111.533 12.325 111.179 11.433 111.179 10.388C111.179 9.35199 111.538 8.46499 112.257 7.72799C112.985 6.98099 113.885 6.60799 114.959 6.60799C116.032 6.60799 116.928 6.97699 117.647 7.71399C118.365 8.45099 118.725 9.34299 118.725 10.388C118.725 11.424 118.361 12.315 117.633 13.062ZM114.959 13.202C115.733 13.202 116.368 12.932 116.863 12.39C117.367 11.849 117.619 11.181 117.619 10.388C117.619 9.60399 117.357 8.93699 116.835 8.38599C116.595 8.11999 116.301 7.90858 115.973 7.76607C115.644 7.62357 115.289 7.55329 114.931 7.55999C114.156 7.55999 113.521 7.83499 113.027 8.38599C112.532 8.92699 112.285 9.59499 112.285 10.388C112.285 11.172 112.541 11.839 113.055 12.39C113.297 12.6525 113.591 12.8606 113.92 13.0006C114.248 13.1406 114.602 13.2092 114.959 13.202ZM120.678 14V6.76199H124.178C124.896 6.76199 125.47 6.92499 125.9 7.25199C126.329 7.57899 126.544 8.01699 126.544 8.56799C126.544 9.34299 126.142 9.89799 125.34 10.234C126.404 10.524 126.936 11.121 126.936 12.026C126.936 12.633 126.698 13.113 126.222 13.468C125.746 13.823 125.106 14 124.304 14H120.678ZM121.756 13.076H124.164C124.677 13.076 125.083 12.969 125.382 12.754C125.68 12.539 125.83 12.241 125.83 11.858C125.83 11.503 125.671 11.228 125.354 11.032C125.046 10.836 124.602 10.738 124.024 10.738H121.756V13.076ZM121.756 9.86999H123.982C124.43 9.86999 124.784 9.77199 125.046 9.57599C125.316 9.37099 125.452 9.08099 125.452 8.70799C125.455 8.56272 125.422 8.41892 125.356 8.28945C125.29 8.15997 125.193 8.04885 125.074 7.96599C124.822 7.77899 124.467 7.68599 124.01 7.68599H121.756V9.86999ZM134.887 13.062C134.159 13.799 133.258 14.168 132.185 14.168C131.111 14.168 130.215 13.799 129.497 13.062C128.787 12.325 128.433 11.433 128.433 10.388C128.433 9.35199 128.792 8.46499 129.511 7.72799C130.239 6.98099 131.139 6.60799 132.213 6.60799C133.286 6.60799 134.182 6.97699 134.901 7.71399C135.619 8.45099 135.979 9.34299 135.979 10.388C135.979 11.424 135.615 12.315 134.887 13.062ZM132.213 13.202C132.987 13.202 133.622 12.932 134.117 12.39C134.621 11.849 134.873 11.181 134.873 10.388C134.873 9.60399 134.611 8.93699 134.089 8.38599C133.849 8.11999 133.555 7.90858 133.227 7.76607C132.898 7.62357 132.543 7.55329 132.185 7.55999C131.41 7.55999 130.775 7.83499 130.281 8.38599C129.786 8.92699 129.539 9.59499 129.539 10.388C129.539 11.172 129.795 11.839 130.309 12.39C130.551 12.6525 130.845 12.8606 131.174 13.0006C131.502 13.1406 131.856 13.2092 132.213 13.202ZM136.714 5.66999V4.33999H137.974V5.66999H136.714ZM139.178 5.66999V4.33999H140.438V5.66999H139.178ZM138.031 14V6.76199H139.109V14H138.031ZM145.808 14V6.76199H150.722V7.71399H146.886V14H145.808ZM152.288 16.24V6.76199H153.366V8.21799C154.094 7.14499 155.018 6.60799 156.138 6.60799C157.062 6.60799 157.869 6.95299 158.56 7.64399C159.251 8.32499 159.596 9.23999 159.596 10.388C159.596 11.518 159.251 12.428 158.56 13.118C157.869 13.808 157.062 14.154 156.138 14.154C154.999 14.154 154.075 13.641 153.366 12.614V16.24H152.288ZM155.942 13.188C156.67 13.188 157.277 12.936 157.762 12.432C158.247 11.919 158.49 11.232 158.49 10.374C158.49 9.54399 158.243 8.87099 157.748 8.35799C157.52 8.10674 157.241 7.90691 156.929 7.77174C156.618 7.63657 156.281 7.56917 155.942 7.57399C155.242 7.57399 154.631 7.83999 154.108 8.37199C153.585 8.90399 153.324 9.57599 153.324 10.388C153.324 11.2 153.585 11.872 154.108 12.404C154.631 12.927 155.242 13.188 155.942 13.188ZM161.585 14V6.76199H162.663V12.488L166.961 6.76199H168.011V14H166.933V8.27399L162.621 14H161.585Z" fill="#FFFBEF" fill-opacity="0.6"/>
<path d="M1 81V196C1 197.591 1.63214 199.117 2.75736 200.243C3.88258 201.368 5.4087 202 7 202H463" stroke="#FFFBEF" stroke-opacity="0.1" stroke-width="2" stroke-linecap="round"/>
<path d="M42.5 82V202M88.5 82V202M134.5 82V202M180.5 82V202M226.5 82V202M272.5 82V202M318.5 82V202M364.5 82V202M410.5 82V202M456.5 82V202" stroke="white" stroke-opacity="0.07" stroke-dasharray="8 8"/>
<path d="M4 199.5L121.769 136.81C130.838 131.982 140.752 128.946 150.97 127.869L263.781 115.972C269.907 115.326 276.086 115.39 282.197 116.162L303.556 118.86C314.726 120.271 326.068 119.308 336.841 116.035L411 93.5" stroke="#FFCE1F" stroke-width="2"/>
<path d="M379.393 89.2824L376.972 81.2388L380.706 80.1148C381.633 79.8359 382.406 79.8624 383.024 80.1944C383.502 80.4514 383.825 80.8596 383.994 81.4188C384.222 82.1772 384.044 82.8616 383.459 83.4721C384.014 83.5137 384.466 83.6536 384.813 83.8916C385.158 84.1219 385.409 84.4975 385.566 85.0184C385.783 85.7385 385.679 86.367 385.256 86.9037C384.833 87.4405 384.154 87.8495 383.219 88.1308L379.393 89.2824ZM379.674 83.972L381.306 83.4809C382.156 83.225 382.494 82.8059 382.319 82.2237C382.238 81.9556 382.077 81.7825 381.837 81.7046C381.594 81.619 381.284 81.6327 380.909 81.7457L379.162 82.2713L379.674 83.972ZM380.65 87.2124L382.752 86.5795C383.587 86.3282 383.915 85.9038 383.735 85.3063C383.56 84.7241 383.036 84.5644 382.162 84.8272L380.117 85.4428L380.65 87.2124ZM391.382 78.9572L393.235 85.1163L391.546 85.6246L390.467 82.0395L389.145 86.3474L387.502 86.842L385.648 80.6829L387.337 80.1745L388.419 83.7711L389.739 79.4517L391.382 78.9572ZM397.744 83.9097C396.825 84.1864 395.965 84.1067 395.166 83.6706C394.374 83.2323 393.843 82.5649 393.573 81.6687C393.306 80.78 393.385 79.9332 393.811 79.1283C394.235 78.3157 394.91 77.7699 395.837 77.4909C396.825 77.1935 397.75 77.308 398.61 77.8344L397.898 79.1764C397.347 78.8995 396.807 78.8406 396.279 78.9997C395.85 79.1288 395.543 79.4007 395.359 79.8154C395.175 80.2301 395.154 80.6749 395.297 81.1499C395.442 81.6325 395.706 81.9959 396.089 82.24C396.476 82.4741 396.904 82.5209 397.371 82.3802C397.854 82.235 398.259 81.8749 398.588 81.2999L399.922 82.0263C399.719 82.4617 399.439 82.8562 399.094 83.1902C398.769 83.497 398.319 83.7368 397.744 83.9097ZM406.523 80.2526C406.073 81.0645 405.374 81.6134 404.424 81.8993C403.474 82.1852 402.589 82.1174 401.769 81.6959C400.954 81.2644 400.41 80.5967 400.138 79.6928C399.869 78.7965 399.958 77.9424 400.407 77.1306C400.864 76.3164 401.567 75.7664 402.517 75.4805C403.467 75.1946 404.35 75.2674 405.165 75.6988C405.985 76.1203 406.531 76.783 406.803 77.687C407.073 78.5832 406.979 79.4385 406.523 80.2526ZM403.994 80.3871C404.477 80.2418 404.815 79.9645 405.009 79.5552C405.201 79.1381 405.225 78.6883 405.079 78.2057C404.939 77.7384 404.666 77.3862 404.26 77.149C403.86 76.9018 403.422 76.8497 402.947 76.9927C402.465 77.1379 402.127 77.4191 401.935 77.8361C401.741 78.2454 401.717 78.6914 401.862 79.174C402.003 79.6413 402.273 79.9986 402.673 80.2457C403.079 80.4829 403.519 80.53 403.994 80.3871ZM408.991 80.3743L407.138 74.2152L408.884 73.6895L409.645 76.2175L411.091 73.0255L413.101 72.4203L411.599 75.6296L415.242 78.493L413.174 79.1155L410.825 77.2659L410.292 78.3663L410.738 79.8486L408.991 80.3743ZM419.896 70.3753L421.75 76.5344L420.061 77.0428L418.982 73.4576L417.659 77.7656L416.016 78.2601L414.162 72.101L415.852 71.5926L416.934 75.1893L418.253 70.8698L419.896 70.3753ZM427.19 68.1801L429.044 74.3392L427.355 74.8476L426.276 71.2624L424.953 75.5704L423.31 76.0649L421.456 69.9058L423.145 69.3975L424.228 72.9941L425.547 68.6747L427.19 68.1801ZM425.359 67.591C425.114 67.9988 424.727 68.2823 424.199 68.4414C423.67 68.6005 423.187 68.5787 422.75 68.376C422.321 68.171 421.985 67.8043 421.742 67.2758L422.71 66.7841C423.025 67.249 423.405 67.4145 423.849 67.2808C424.294 67.1471 424.519 66.7994 424.525 66.2377L425.603 66.1138C425.693 66.6884 425.611 67.1808 425.359 67.591Z" fill="#FFCE1F"/>
<path d="M4.5 200L172.519 158.35C178.816 156.789 185.28 156 191.768 156H308.543C316.142 156 323.702 154.917 330.996 152.784L458.5 115.5" stroke="#AAFF1F" stroke-width="2"/>
<path d="M409.5 97C411.433 97 413 95.433 413 93.5C413 91.567 411.433 90 409.5 90C407.567 90 406 91.567 406 93.5C406 95.433 407.567 97 409.5 97Z" fill="#FFCE1F"/>
<path d="M456.5 119C458.433 119 460 117.433 460 115.5C460 113.567 458.433 112 456.5 112C454.567 112 453 113.567 453 115.5C453 117.433 454.567 119 456.5 119Z" fill="#AAFF1F"/>
<path d="M396.547 116.778L397.158 112.345L398.917 111.818L397.793 118.368C397.666 119.095 397.452 119.657 397.15 120.054C396.855 120.448 396.444 120.725 395.917 120.883C395.363 121.049 394.789 121.064 394.197 120.928L394.472 119.548C394.787 119.629 395.103 119.623 395.419 119.528C395.784 119.418 396.034 119.129 396.169 118.66L391.563 114.024L393.375 113.48L396.547 116.778ZM402.04 118.92L400.346 113.273L401.947 112.792L402.643 115.11L403.97 112.185L405.814 111.632L404.434 114.573L407.771 117.201L405.875 117.77L403.724 116.072L403.234 117.081L403.641 118.44L402.04 118.92ZM408.987 118.674L406.787 111.341L408.388 110.86L408.632 111.672C408.898 110.926 409.393 110.444 410.116 110.227C410.819 110.016 411.502 110.099 412.166 110.474C412.829 110.849 413.297 111.489 413.569 112.396C413.839 113.295 413.8 114.083 413.452 114.762C413.109 115.431 412.583 115.872 411.874 116.085C411.171 116.296 410.5 116.191 409.861 115.77L410.588 118.193L408.987 118.674ZM409.945 114.711C410.299 114.919 410.669 114.965 411.055 114.849C411.441 114.733 411.725 114.491 411.905 114.123C412.084 113.748 412.102 113.326 411.961 112.855C411.824 112.398 411.579 112.066 411.226 111.858C410.87 111.643 410.499 111.594 410.113 111.71C409.727 111.825 409.444 112.071 409.266 112.446C409.092 112.812 409.076 113.23 409.217 113.701C409.354 114.157 409.597 114.494 409.945 114.711ZM417.224 114.48C416.669 114.647 416.159 114.631 415.694 114.434C415.236 114.234 414.925 113.861 414.761 113.313C414.581 112.716 414.65 112.205 414.967 111.781C415.291 111.355 415.801 111.037 416.496 110.829C416.967 110.687 417.45 110.627 417.946 110.646L417.917 110.552C417.711 109.863 417.204 109.64 416.396 109.882C415.911 110.028 415.422 110.286 414.928 110.656L414.161 109.554C414.759 109.045 415.444 108.675 416.217 108.443C417.067 108.188 417.766 108.208 418.314 108.503C418.843 108.789 419.227 109.328 419.465 110.122L420.448 113.398L418.899 113.863L418.716 113.252C418.431 113.858 417.933 114.268 417.224 114.48ZM417.377 113.229C417.749 113.117 418.024 112.935 418.201 112.683C418.376 112.424 418.42 112.15 418.333 111.862L418.248 111.578C417.904 111.528 417.542 111.56 417.163 111.674C416.812 111.779 416.559 111.931 416.404 112.131C416.255 112.321 416.219 112.546 416.297 112.806C416.36 113.017 416.491 113.161 416.691 113.239C416.888 113.31 417.117 113.307 417.377 113.229ZM421.178 106.346L420.752 104.924L422.29 104.463L422.717 105.885L421.178 106.346ZM418.924 107.023L418.497 105.6L420.035 105.139L420.462 106.561L418.924 107.023ZM421.9 112.963L420.206 107.316L421.807 106.835L423.501 112.483L421.9 112.963ZM428.485 104.832L430.179 110.48L428.577 110.96L427.929 108.8L425.959 109.391L426.607 111.551L425.005 112.031L423.311 106.384L424.913 105.904L425.564 108.074L427.534 107.483L426.883 105.313L428.485 104.832ZM434.315 109.377C433.472 109.63 432.684 109.556 431.952 109.156C431.226 108.753 430.74 108.141 430.493 107.319C430.249 106.504 430.322 105.728 430.714 104.991C431.103 104.246 431.722 103.746 432.572 103.491C433.478 103.22 434.326 103.325 435.114 103.809L434.46 105.038C433.955 104.784 433.46 104.729 432.976 104.875C432.582 104.993 432.301 105.242 432.132 105.622C431.963 106.002 431.943 106.41 432.074 106.845C432.207 107.288 432.448 107.621 432.799 107.845C433.154 108.06 433.546 108.103 433.974 107.975C434.417 107.842 434.789 107.512 435.09 106.985L436.312 107.652C436.105 108.082 435.851 108.438 435.553 108.718C435.254 108.999 434.842 109.219 434.315 109.377ZM437.63 108.245L435.936 102.597L437.538 102.117L438.097 103.982L439.256 103.634C439.938 103.43 440.529 103.424 441.032 103.618C441.541 103.81 441.887 104.212 442.07 104.823C442.25 105.42 442.198 105.948 441.914 106.408C441.636 106.859 441.157 107.187 440.475 107.391L437.63 108.245ZM439.462 104.893L438.461 105.193L438.853 106.5L439.864 106.196C440.391 106.038 440.587 105.735 440.452 105.285C440.393 105.088 440.276 104.955 440.102 104.885C439.935 104.812 439.722 104.815 439.462 104.893ZM443.567 106.464L441.873 100.816L443.475 100.336L444.17 102.654L445.498 99.7292L447.342 99.1761L445.961 102.117L449.299 104.745L447.402 105.313L445.251 103.616L444.761 104.624L445.169 105.983L443.567 106.464ZM454.742 102.319C454.33 103.063 453.688 103.566 452.817 103.827C451.946 104.088 451.135 104.025 450.384 103.638C449.637 103.242 449.139 102.63 448.891 101.801C448.644 100.979 448.727 100.196 449.139 99.4523C449.559 98.7063 450.204 98.2027 451.075 97.9415C451.946 97.6802 452.755 97.7477 453.501 98.1439C454.253 98.5309 454.753 99.1389 455.002 99.9677C455.248 100.79 455.162 101.573 454.742 102.319ZM452.424 102.44C452.867 102.308 453.177 102.054 453.356 101.679C453.532 101.297 453.554 100.884 453.421 100.442C453.293 100.013 453.043 99.6902 452.671 99.4724C452.304 99.2456 451.903 99.1974 451.468 99.328C451.025 99.4608 450.716 99.7182 450.54 100.1C450.361 100.475 450.338 100.884 450.471 101.327C450.6 101.755 450.847 102.083 451.214 102.31C451.585 102.528 451.989 102.571 452.424 102.44ZM462.185 101.017C461.468 101.232 460.794 101.205 460.162 100.935C459.535 100.656 459.057 100.198 458.728 99.5621L457.959 99.7928L458.607 101.953L457.005 102.433L455.311 96.7857L456.913 96.3053L457.564 98.4757L458.333 98.245C458.273 97.5356 458.429 96.8954 458.802 96.3243C459.179 95.7442 459.726 95.3466 460.442 95.1317C461.278 94.881 462.044 94.9576 462.739 95.3615C463.435 95.7654 463.908 96.3853 464.158 97.2212C464.407 98.05 464.35 98.829 463.986 99.5581C463.621 100.28 463.021 100.767 462.185 101.017ZM461.792 99.6307C462.206 99.5064 462.476 99.2686 462.6 98.9174C462.722 98.5592 462.715 98.1518 462.578 97.6952C462.445 97.2527 462.222 96.9177 461.909 96.6901C461.593 96.4555 461.236 96.3982 460.835 96.5183C460.421 96.6426 460.152 96.8839 460.03 97.2421C459.906 97.5933 459.912 97.9972 460.049 98.4537C460.182 98.8963 460.406 99.2348 460.721 99.4694C461.035 99.697 461.391 99.7508 461.792 99.6307Z" fill="#AAFF1F"/>
</svg>
