<svg xmlns="http://www.w3.org/2000/svg" width="24" height="24" fill="none" viewBox="0 0 24 24"><rect width="24" height="24" fill="url(#a)" rx="6"/><g fill="#fff" clip-path="url(#b)"><path d="M15.136 5H8.863A3.868 3.868 0 0 0 5 8.863v6.273A3.868 3.868 0 0 0 8.863 19h6.273A3.868 3.868 0 0 0 19 15.136V8.863A3.868 3.868 0 0 0 15.136 5Zm2.622 10.136a2.624 2.624 0 0 1-2.622 2.622H8.863a2.624 2.624 0 0 1-2.62-2.622V8.863a2.624 2.624 0 0 1 2.62-2.62h6.273a2.624 2.624 0 0 1 2.622 2.62v6.273Z"/><path d="M12 8.393A3.611 3.611 0 0 0 8.393 12 3.611 3.611 0 0 0 12 15.607 3.611 3.611 0 0 0 15.607 12 3.611 3.611 0 0 0 12 8.393Zm0 5.972A2.368 2.368 0 0 1 9.635 12 2.368 2.368 0 0 1 12 9.635 2.368 2.368 0 0 1 14.365 12 2.368 2.368 0 0 1 12 14.365Zm3.759-7.025a.914.914 0 0 0-.911.91c0 .24.097.475.267.645a.918.918 0 0 0 .644.266.92.92 0 0 0 .644-.266.915.915 0 0 0-.644-1.555Z"/></g><defs><linearGradient id="a" x1="1.38549e-06" x2="17.7125" y1="12" y2="26.0674" gradientUnits="userSpaceOnUse"><stop stop-color="#7624FA"/><stop offset="0.3" stop-color="#CB2796"/><stop offset="1" stop-color="#F2BE58"/></linearGradient><clipPath id="b"><path fill="#fff" d="M5 5h14v14H5z"/></clipPath></defs></svg>