<svg xmlns="http://www.w3.org/2000/svg" width="76" height="34" fill="none" viewBox="0 0 76 34"><rect width="76" height="34" fill="#fff" rx="5"/><g fill-rule="evenodd" clip-path="url(#a)" clip-rule="evenodd"><path fill="url(#b)" d="m57.15 21.272-.128-.113c-.312-.275-.367-.776-.083-1.098l3.343-3.936c.267-.322.754-.378 1.066-.085l.128.114c.313.274.368.775.083 1.097l-3.343 3.936a.748.748 0 0 1-1.065.085Z"/><path fill="url(#c)" d="m59.833 16.806-.065-.075-.514.605.055.067c.882.908.505 1.826.303 2.147l.074-.085c.119-.142.303-.36.496-.596.202-.36.486-1.211-.35-2.063Z" opacity="0.4"/><path fill="url(#d)" d="m60.935 17.99.137-.162c.01-.019.028-.038.037-.056-.147.17-.303.35-.45.53l.276-.313Z" opacity="0.4"/><path fill="url(#e)" d="m61.578 16.248-3.343-3.936c-.267-.321-.754-.378-1.066-.085l-.128.114c-.313.274-.368.775-.083 1.097l2.82 3.293.064.075c.836.861.55 1.713.34 2.072.165-.198.33-.397.486-.577.147-.18.303-.36.45-.53l.377-.435c.321-.321.367-.766.083-1.088Z"/><path fill="url(#f)" d="m61.394 21.272-.129-.113c-.312-.275-.367-.776-.082-1.098l3.342-3.936c.267-.322.754-.378 1.066-.085l.129.114c.312.274.367.775.082 1.097l-3.343 3.936a.748.748 0 0 1-1.065.085Z"/><path fill="url(#g)" d="m64.112 16.769-.064-.076-.514.605.055.067c.882.908.505 1.826.303 2.147l.073-.085c.12-.142.303-.36.496-.596.202-.36.487-1.21-.349-2.062Z" opacity="0.4"/><path fill="url(#h)" d="m65.169 17.99.137-.162c.01-.019.028-.038.037-.056-.147.17-.303.35-.45.53.11-.124.211-.228.276-.313Z" opacity="0.4"/><path fill="url(#i)" d="m65.811 16.248-3.343-3.936c-.266-.321-.753-.378-1.065-.085l-.128.114c-.313.274-.368.775-.083 1.097l2.82 3.293.064.075c.836.861.55 1.713.34 2.072.165-.198.33-.397.486-.577.147-.18.303-.36.45-.53l.377-.435c.321-.321.367-.766.082-1.088Z"/><path fill="#4B4C4B" d="M10.202 21.235c-.129-.133-.202-.331-.202-.578v-7.786c0-.256.073-.455.23-.615a.783.783 0 0 1 .597-.237c.248 0 .468.076.615.237.156.16.23.36.23.615v7.18h3.609c.514 0 .78.238.78.701 0 .464-.266.7-.78.7h-4.5c-.248 0-.441-.075-.579-.217Zm7.164.056c-.156-.16-.23-.369-.23-.634v-7.796c0-.255.074-.454.23-.615a.783.783 0 0 1 .597-.237c.248 0 .468.076.615.237.156.16.23.36.23.615v7.796c0 .256-.074.474-.23.634-.156.161-.358.237-.615.237a.797.797 0 0 1-.597-.237Zm10.993 1.93a.948.948 0 0 0-.147-.473l-.46-.71c-.266-.444-.587-.747-.982-.88a3.681 3.681 0 0 0 1.754-1.655c.413-.747.615-1.665.615-2.715 0-.975-.174-1.827-.523-2.546a3.93 3.93 0 0 0-1.497-1.665C26.476 12.2 25.705 12 24.832 12c-.89 0-1.653.18-2.305.577a3.934 3.934 0 0 0-1.497 1.665c-.34.729-.524 1.571-.524 2.546 0 .965.175 1.816.524 2.545a3.93 3.93 0 0 0 1.497 1.665c.652.378 1.414.577 2.305.577.312 0 .56.057.753.152.193.094.35.245.469.454l.753 1.286c.091.142.21.256.34.332a.87.87 0 0 0 .983-.085.599.599 0 0 0 .229-.493Zm-.882-6.452c0 1.097-.239 1.949-.707 2.545-.468.596-1.12.89-1.956.89-.836 0-1.497-.294-1.966-.89-.468-.596-.707-1.429-.707-2.545 0-1.117.239-1.95.707-2.545.469-.587 1.12-.88 1.966-.88.845 0 1.488.283 1.956.88.468.596.707 1.428.707 2.545Zm3.453 3.888c0 .265.074.474.23.634.138.161.35.237.597.246.257 0 .46-.075.616-.236.156-.152.23-.36.23-.634v-2.858h2.304c.974 0 1.727-.245 2.269-.757.542-.5.817-1.21.817-2.11 0-.898-.275-1.608-.817-2.1-.542-.51-1.295-.757-2.269-.757H31.74a.844.844 0 0 0-.588.208c-.147.142-.22.341-.22.596v7.768Zm5.484-5.696c0 1.022-.58 1.543-1.718 1.543l-2.094-.01V13.42h2.094c1.139 0 1.718.52 1.718 1.542Zm10.129 6.33a.706.706 0 0 0 .24-.52c0-.123-.028-.227-.065-.35l-3.573-7.882a.899.899 0 0 0-.358-.406 1.033 1.033 0 0 0-.505-.133.94.94 0 0 0-.505.133.846.846 0 0 0-.358.406l-3.564 7.882a.958.958 0 0 0-.073.35c0 .208.073.388.239.52a.847.847 0 0 0 .541.208.715.715 0 0 0 .395-.113.774.774 0 0 0 .285-.35l.78-1.779h4.52l.78 1.779a.766.766 0 0 0 .285.35.73.73 0 0 0 .385.113.834.834 0 0 0 .551-.208Zm-2.553-3.359h-3.407l1.699-3.936 1.708 3.936Zm9.221-5.913a.71.71 0 0 1 .524.236.75.75 0 0 1 .23.559.82.82 0 0 1-.194.51l-2.93 3.681v3.68c0 .275-.073.483-.229.644-.156.161-.349.227-.588.227a.856.856 0 0 1-.615-.227c-.156-.151-.23-.36-.23-.643v-3.68l-2.91-3.69a.805.805 0 0 1-.194-.512c0-.208.074-.397.23-.558a.724.724 0 0 1 .523-.237c.22 0 .395.095.551.294l2.636 3.368 2.627-3.368a.718.718 0 0 1 .57-.284Z"/></g><defs><linearGradient id="b" x1="58.1948" x2="62.8859" y1="22.5007" y2="20.293" gradientUnits="userSpaceOnUse"><stop stop-color="#1FADC3"/><stop offset="0.7072" stop-color="#36B98F"/></linearGradient><linearGradient id="c" x1="59.8241" x2="60.6924" y1="18.7787" y2="18.656" gradientUnits="userSpaceOnUse"><stop stop-color="#123F06" stop-opacity="0.01"/><stop offset="1" stop-color="#123F06"/></linearGradient><linearGradient id="e" x1="55.022" x2="60.6835" y1="17.2515" y2="19.1506" gradientUnits="userSpaceOnUse"><stop stop-color="#9FDB57"/><stop offset="1" stop-color="#71CA5E"/></linearGradient><linearGradient id="f" x1="62.4338" x2="67.1249" y1="22.5031" y2="20.2954" gradientUnits="userSpaceOnUse"><stop stop-color="#1FADC3"/><stop offset="0.7072" stop-color="#36B98F"/></linearGradient><linearGradient id="g" x1="64.1038" x2="64.972" y1="18.7408" y2="18.6181" gradientUnits="userSpaceOnUse"><stop stop-color="#123F06" stop-opacity="0.01"/><stop offset="1" stop-color="#123F06"/></linearGradient><linearGradient id="i" x1="59.2586" x2="64.9201" y1="17.2532" y2="19.1523" gradientUnits="userSpaceOnUse"><stop stop-color="#9FDB57"/><stop offset="1" stop-color="#71CA5E"/></linearGradient><radialGradient id="d" cx="0" cy="0" r="1" gradientTransform="matrix(2.23925 0 0 2.63647 59.093 18.481)" gradientUnits="userSpaceOnUse"><stop offset="0.4185" stop-color="#123F06" stop-opacity="0.01"/><stop offset="1" stop-color="#123F06"/></radialGradient><radialGradient id="h" cx="0" cy="0" r="1" gradientTransform="matrix(2.23925 0 0 2.63647 63.33 18.481)" gradientUnits="userSpaceOnUse"><stop offset="0.4185" stop-color="#123F06" stop-opacity="0.01"/><stop offset="1" stop-color="#123F06"/></radialGradient><clipPath id="a"><path fill="#fff" d="M10 12h56v12H10z"/></clipPath></defs></svg>