<svg xmlns="http://www.w3.org/2000/svg" width="24" height="24" fill="none" viewBox="0 0 24 24"><rect width="21" height="18" x="2" y="3" fill="#fff" fill-opacity="0.05" rx="4"/><mask id="a" width="21" height="18" x="2" y="3" maskUnits="userSpaceOnUse" style="mask-type:alpha"><rect width="21" height="18" x="2" y="3" fill="#fff" rx="4"/></mask><g mask="url(#a)"><path fill="#EF582B" d="M2 22h21v-4H2z"/></g><path fill="#fff" d="M4.739 14V9.1h1.358v3.71H8.47V14H4.739Zm8.38-.644c-.504.495-1.132.742-1.883.742-.751 0-1.38-.245-1.883-.735a2.455 2.455 0 0 1-.75-1.813c0-.71.253-1.311.757-1.806.509-.495 1.139-.742 1.89-.742.751 0 1.377.247 1.876.742a2.42 2.42 0 0 1 .756 1.806c0 .71-.254 1.311-.763 1.806Zm-1.87-.483c.37 0 .668-.128.897-.385.233-.257.35-.57.35-.938a1.32 1.32 0 0 0-.357-.931 1.169 1.169 0 0 0-.903-.392c-.364 0-.663.128-.896.385a1.36 1.36 0 0 0-.343.938c0 .364.117.677.35.938.238.257.539.385.903.385Zm4.369 1.162L13.98 9.1h1.435l.854 2.835.945-2.849h1.169l.945 2.849.854-2.835h1.407l-1.638 4.935h-1.183l-.987-2.821-.98 2.821h-1.183Z"/></svg>