<svg xmlns="http://www.w3.org/2000/svg" width="24" height="24" fill="none" viewBox="0 0 24 24"><rect width="21" height="18" x="2" y="3" fill="#fff" fill-opacity="0.05" rx="4"/><mask id="a" width="21" height="18" x="2" y="3" maskUnits="userSpaceOnUse" style="mask-type:alpha"><rect width="21" height="18" x="2" y="3" fill="#fff" rx="4"/></mask><g mask="url(#a)"><path fill="#EF582B" d="M2 22h21V12H2z"/></g><path fill="#fff" d="M4.885 14V9.1H6.32l1.169 1.897L8.658 9.1h1.435V14H8.742v-2.814l-1.253 1.918H7.46L6.215 11.2V14h-1.33Zm6.077 0V9.1h3.94v1.155h-2.596v.742h2.352v1.071h-2.352v.777h2.632V14h-3.976Zm4.669 0V9.1h1.89c.858 0 1.533.224 2.023.672.494.448.742 1.036.742 1.764 0 .723-.25 1.316-.75 1.778-.499.457-1.18.686-2.043.686H15.63Zm1.358-1.204h.553c.41 0 .737-.11.98-.329.247-.22.37-.527.37-.924 0-.387-.123-.693-.37-.917-.243-.224-.57-.336-.98-.336h-.553v2.506Z"/></svg>