<svg xmlns="http://www.w3.org/2000/svg" width="24" height="24" fill="none" viewBox="0 0 24 24"><rect width="24" height="24" fill="url(#a)" rx="6"/><path fill="#fff" d="M12.287 5.45c.716-.01 1.427-.005 2.137-.01a3.4 3.4 0 0 0 .958 2.28v-.001c.617.556 1.42.917 2.305.978h.013v2.204a5.83 5.83 0 0 1-2.333-.546l.036.015a6.738 6.738 0 0 1-.909-.523l.023.015c-.005 1.596.006 3.193-.01 4.784a4.163 4.163 0 0 1-.748 2.167l.01-.014a4.075 4.075 0 0 1-3.226 1.755h-.006a3.969 3.969 0 0 1-2.248-.573l.017.01a4.132 4.132 0 0 1-1.994-3.104l-.001-.018a10.13 10.13 0 0 1-.006-.814 4.12 4.12 0 0 1 4.797-3.649l-.024-.003c.011.809-.022 1.618-.022 2.427a1.877 1.877 0 0 0-2.391 1.146l-.004.013a2.123 2.123 0 0 0-.075.89l-.001-.01a1.864 1.864 0 0 0 1.917 1.569h-.004a1.836 1.836 0 0 0 1.51-.872l.004-.008a1.25 1.25 0 0 0 .224-.574v-.006c.055-.979.033-1.952.038-2.93.005-2.204-.005-4.402.011-6.6l.002.002Z"/><defs><linearGradient id="a" x1="24" x2="0" y1="24" y2="0" gradientUnits="userSpaceOnUse"><stop stop-color="#16ABFF"/><stop offset="1" stop-color="#FF1616"/></linearGradient></defs></svg>