<svg xmlns="http://www.w3.org/2000/svg" width="24" height="24" fill="none" viewBox="0 0 24 24"><rect width="24" height="24" fill="#FF1616" rx="6"/><g clip-path="url(#a)"><path fill="#fff" d="M18.454 7.92c-.505-.601-1.438-.846-3.22-.846H8.766c-1.823 0-2.772.26-3.275.9C5 8.598 5 9.517 5 10.788v2.424c0 2.464.582 3.714 3.766 3.714h6.468c1.545 0 2.402-.216 2.955-.746.569-.544.811-1.431.811-2.968v-2.424c0-1.34-.038-2.265-.546-2.868Zm-4.466 4.415-2.937 1.535a.45.45 0 0 1-.661-.4v-3.06a.451.451 0 0 1 .66-.402l2.937 1.526a.452.452 0 0 1 .001.8Z"/></g><defs><clipPath id="a"><path fill="#fff" d="M5 5h14v14H5z"/></clipPath></defs></svg>